<?xml version="1.0" encoding="utf-8"?>
<!-- Generator: Adobe Illustrator 25.2.1, SVG Export Plug-In . SVG Version: 6.00 Build 0)  -->
<svg version="1.1" id="info_x5F_button" xmlns="http://www.w3.org/2000/svg" xmlns:xlink="http://www.w3.org/1999/xlink" x="0px"
	 y="0px" viewBox="0 0 123 123.1" style="enable-background:new 0 0 123 123.1;" xml:space="preserve">
<style type="text/css">
	.st0{fill:#0023F9;}
	.st1{fill:#FFFFFF;}
</style>
<path class="st0" d="M61.5,1.1c33.4,0,60.5,27.1,60.5,60.5s-27.1,60.5-60.5,60.5S1,95,1,61.6S28.1,1.1,61.5,1.1z"/>
<g>
	<path class="st1" d="M71.5,30.8c0,6.2-5,11.3-11.2,11.3S49,37,49,30.8s5-11.3,11.2-11.3S71.5,24.6,71.5,30.8z"/>
	<path class="st1" d="M72.1,90.5c-0.1,2.7,1.2,3.5,4.3,3.8l5,0.1v5.1H42.4v-5.1l5.5-0.1c3.3-0.1,4.1-1.4,4.3-3.8V59.7
		c0-4.9-6.3-4.1-10.8-4v-5.1l30.7-1.1"/>
</g>
</svg>
