<?xml version="1.0" standalone="no"?>
<!DOCTYPE svg PUBLIC "-//W3C//DTD SVG 20010904//EN"
 "http://www.w3.org/TR/2001/REC-SVG-20010904/DTD/svg10.dtd">
<svg version="1.0" xmlns="http://www.w3.org/2000/svg"
 width="214.000000pt" height="235.000000pt" viewBox="0 0 214.000000 235.000000"
 preserveAspectRatio="xMidYMid meet">

<g transform="translate(0.000000,235.000000) scale(0.100000,-0.100000)"
fill="#000000" stroke="none">
<path d="M1151 2276 c-10 -12 -6 -26 10 -26 11 0 19 29 10 35 -5 2 -14 -1 -20
-9z"/>
<path d="M1265 2274 c-13 -13 -14 -19 -4 -25 8 -4 11 -10 9 -13 -3 -2 -16 5
-30 17 -20 16 -21 19 -5 13 14 -5 17 -4 9 4 -17 17 -43 2 -37 -23 5 -17 3 -19
-6 -11 -13 12 -51 7 -51 -6 0 -5 8 -10 18 -12 14 -3 13 -6 -7 -17 -13 -7 -21
-8 -17 -3 4 7 -6 9 -30 5 -27 -4 -35 -3 -30 5 12 20 -29 14 -48 -7 -16 -18
-16 -20 -1 -29 14 -7 10 -10 -19 -15 -20 -3 -48 -15 -62 -26 -26 -20 -44 -20
-44 0 0 6 5 7 12 3 7 -4 8 -3 4 4 -4 6 -14 8 -23 5 -12 -5 -14 -3 -8 7 5 9 4
11 -3 6 -7 -4 -12 -17 -13 -29 0 -21 -1 -21 -9 -2 -6 13 -9 15 -9 5 -1 -13 -2
-13 -11 0 -9 13 -10 13 -10 0 1 -8 7 -24 15 -34 21 -28 19 -43 -2 -20 -26 28
-46 30 -38 4 5 -17 3 -21 -12 -18 -23 4 -20 -31 5 -49 9 -7 12 -13 7 -13 -5 0
-16 7 -26 16 -18 17 -39 12 -39 -9 0 -7 12 -20 28 -29 15 -10 20 -17 12 -17
-8 0 -24 6 -34 14 -10 8 -23 12 -27 9 -15 -9 -10 -44 6 -50 8 -4 15 -11 15
-17 0 -5 -9 -2 -20 8 -19 17 -20 17 -26 0 -7 -17 10 -38 40 -48 6 -2 7 -8 3
-13 -4 -5 -12 -2 -17 6 -14 23 -22 5 -10 -24 5 -15 10 -41 10 -57 0 -19 4 -28
11 -24 6 4 8 13 5 21 -3 8 -1 14 4 14 5 0 13 12 16 28 11 44 46 115 71 142 13
14 26 33 29 42 3 9 14 20 25 23 11 4 18 9 15 12 -7 7 38 43 53 43 6 0 11 4 11
8 0 13 67 40 143 57 47 11 90 14 135 9 37 -3 68 -7 70 -9 1 -1 -26 -5 -60 -9
-34 -3 -64 -10 -68 -15 -3 -5 -17 -13 -33 -16 -34 -9 -25 -25 15 -25 25 0 29
-3 25 -20 -4 -17 0 -20 24 -20 25 0 28 -3 21 -17 -5 -10 -7 -24 -5 -30 3 -7 0
-13 -6 -13 -6 0 -11 -4 -11 -8 0 -5 10 -8 23 -8 17 1 22 -4 21 -24 -1 -25 22
-57 34 -46 3 4 1 16 -6 26 -15 24 -15 30 -2 30 20 0 33 -46 20 -71 -7 -13 -9
-21 -5 -17 5 4 14 3 22 -3 9 -9 13 -8 13 0 0 14 47 15 55 1 4 -6 4 -24 0 -40
-5 -21 -11 -27 -23 -23 -10 4 -12 8 -4 11 17 5 15 52 -2 52 -15 0 -44 -30 -30
-30 5 0 2 -5 -6 -10 -12 -8 -13 -13 -2 -30 7 -12 8 -20 2 -20 -5 0 -10 6 -10
13 0 6 -14 -4 -29 -23 -30 -35 -31 -50 -5 -50 9 0 14 10 14 27 0 26 1 26 15 7
21 -28 18 -39 -11 -40 -14 -1 -31 -10 -39 -20 -10 -15 -16 -16 -27 -6 -8 6
-18 9 -21 5 -4 -3 -12 -1 -19 5 -7 5 -33 16 -57 23 -26 8 -46 21 -51 33 -7 17
-9 18 -9 4 -2 -35 -21 -17 -22 20 0 30 -2 33 -9 17 -5 -11 -9 -14 -9 -7 -1 6
-10 12 -20 12 -10 0 -22 7 -25 16 -4 9 -13 14 -21 10 -9 -3 -15 0 -15 9 0 8
-5 15 -11 15 -7 0 -9 10 -6 26 3 18 1 24 -9 20 -17 -6 -44 3 -44 15 0 4 6 6
14 3 16 -6 29 11 33 41 1 11 5 34 8 50 3 17 2 25 -3 19 -4 -6 -20 -14 -35 -18
-19 -4 -27 -12 -23 -21 3 -8 0 -12 -7 -10 -13 5 -87 -107 -87 -130 0 -8 -5
-27 -11 -42 -59 -146 -69 -179 -64 -215 3 -24 1 -38 -6 -38 -6 0 -8 8 -5 18 5
14 4 14 -9 -2 -20 -26 -19 -12 1 22 11 18 2 12 -25 -17 -22 -24 -38 -48 -35
-53 4 -6 10 -5 16 3 6 10 7 6 2 -11 -4 -14 -8 -33 -9 -42 -1 -10 -5 -21 -10
-25 -4 -5 -5 -3 -2 4 4 6 2 13 -4 15 -9 3 -9 10 0 27 11 20 11 22 -9 19 -11
-2 -19 -5 -18 -8 2 -3 -8 -19 -20 -35 l-24 -30 42 -3 c47 -4 58 3 65 39 3 13
10 26 15 27 7 3 7 9 -1 18 -7 8 -9 18 -5 21 4 4 11 1 16 -7 7 -10 10 -11 10
-2 0 6 5 12 10 12 13 0 13 -37 -1 -46 -6 -3 -9 -15 -6 -25 3 -10 0 -22 -6 -26
-6 -4 -2 -9 10 -14 16 -6 20 -15 18 -43 -2 -38 -17 -54 -93 -103 -23 -15 -40
-33 -38 -40 3 -8 -1 -10 -11 -6 -13 5 -15 1 -9 -23 4 -16 15 -35 24 -42 15
-11 15 -14 2 -22 -8 -6 -10 -10 -3 -10 6 0 9 -9 6 -20 -5 -18 0 -20 55 -20
l60 0 4 -37 c9 -77 4 -83 -72 -83 -73 0 -100 -6 -100 -22 0 -6 51 -8 140 -5
107 4 142 2 148 -8 4 -7 22 -20 40 -29 37 -19 43 -31 10 -22 -52 15 -58 15
-58 -4 0 -10 5 -20 11 -22 5 -2 7 -10 4 -19 -5 -13 -24 -15 -113 -13 -68 1
-109 -2 -114 -9 -4 -7 -11 -7 -21 2 -13 10 -16 9 -19 -5 -4 -20 -48 -27 -48
-8 0 10 -9 12 -30 8 -21 -5 -30 -3 -30 6 0 10 -3 10 -15 0 -19 -16 -9 -33 16
-25 12 4 21 1 25 -9 3 -9 10 -16 16 -16 5 0 16 -7 25 -16 9 -8 22 -13 30 -10
8 3 12 2 9 -2 -3 -5 10 -16 29 -25 29 -14 35 -22 35 -48 0 -31 0 -32 20 -14
11 10 17 23 13 29 -3 6 -3 8 2 4 12 -11 14 -64 3 -79 -7 -11 -8 -11 -6 1 4 20
-2 23 -27 15 -52 -17 -86 -36 -79 -46 4 -7 0 -9 -13 -5 -10 3 -28 0 -39 -8
-18 -15 -18 -15 3 -9 15 3 25 0 29 -11 3 -9 13 -16 21 -16 9 0 21 -7 28 -17
12 -17 51 -11 41 6 -8 13 14 72 25 65 5 -3 6 -10 3 -16 -5 -7 -1 -9 9 -5 20 8
33 -11 18 -26 -8 -8 -11 -8 -11 1 0 7 -4 12 -10 12 -16 0 -12 -17 6 -24 10 -4
23 3 35 16 20 25 26 10 9 -23 -6 -11 -7 -19 -1 -19 5 0 7 -8 4 -19 -2 -10 0
-35 5 -55 7 -23 7 -36 1 -36 -6 0 -7 -6 -3 -12 5 -9 2 -9 -9 1 -22 18 -21 9 4
-35 23 -43 18 -94 -11 -101 -26 -7 -33 -32 -15 -49 8 -9 15 -12 15 -7 0 5 -5
14 -12 21 -9 9 -8 12 8 12 13 0 20 -7 21 -22 1 -11 7 -24 14 -28 6 -4 9 -12 5
-18 -8 -14 64 -26 77 -13 6 6 7 14 3 18 -4 4 -11 1 -16 -7 -7 -12 -12 -12 -22
-2 -9 9 -9 12 5 12 9 0 17 7 17 15 0 12 5 10 21 -6 14 -14 18 -27 13 -42 -5
-18 -4 -20 7 -9 7 6 21 12 30 12 9 0 19 7 23 15 3 8 16 15 28 15 61 1 75 5 70
20 -5 12 -3 13 9 3 9 -8 19 -9 25 -4 5 5 35 16 67 24 49 13 62 13 84 2 15 -8
31 -12 37 -9 6 3 -6 -10 -26 -29 -41 -37 -46 -47 -23 -47 8 0 20 10 26 22 7
14 14 18 16 11 4 -10 7 -10 18 0 7 7 10 16 7 21 -3 5 0 6 7 2 9 -6 9 -11 0
-22 -9 -11 -7 -14 12 -15 l24 0 -23 -9 c-12 -5 -29 -7 -37 -4 -8 4 -17 -1 -21
-10 -3 -9 -10 -13 -16 -10 -5 3 -16 -2 -24 -12 -14 -18 -15 -18 -9 4 6 21 -2
27 -28 23 -5 -1 -6 3 -2 9 3 6 11 8 16 5 5 -4 9 -1 9 4 0 6 9 20 20 31 30 30
13 24 -32 -11 -21 -18 -37 -37 -35 -43 3 -6 -2 -17 -9 -24 -11 -10 -13 -7 -10
17 2 17 1 33 -2 35 -6 7 -36 -9 -56 -30 -9 -9 -16 -11 -16 -4 0 6 -4 9 -9 6
-5 -3 -11 1 -15 9 -7 20 -36 7 -36 -17 0 -10 -4 -17 -10 -13 -11 7 -109 -36
-110 -47 0 -5 7 -9 15 -9 8 -1 21 -2 28 -3 6 -1 20 4 30 12 11 10 17 11 17 4
0 -7 5 -12 10 -12 6 0 10 8 10 17 0 15 1 15 14 -2 14 -19 46 -19 243 1 30 3
54 1 58 -6 3 -5 18 -10 33 -9 26 0 26 1 5 9 -13 5 -23 11 -23 12 0 2 25 4 54
5 44 1 56 -2 59 -15 4 -15 5 -15 6 1 1 12 10 17 34 17 51 0 58 9 65 94 3 34 1
46 -7 42 -6 -4 -8 -18 -5 -32 5 -19 3 -23 -10 -18 -9 3 -16 1 -16 -5 0 -6 4
-11 9 -11 5 0 7 -9 4 -21 -4 -16 -8 -18 -14 -7 -7 11 -11 10 -19 -2 -6 -9 -10
-10 -10 -3 0 6 5 15 10 18 7 4 6 13 -1 27 -8 15 -8 19 0 14 6 -4 11 -3 11 2 0
21 -15 20 -45 -4 -32 -24 -33 -24 -28 -4 6 22 23 38 23 20 0 -6 16 6 36 27 28
29 37 34 45 22 5 -8 9 -9 9 -4 -1 18 -25 42 -38 37 -11 -3 -11 -1 0 17 11 18
14 19 16 6 2 -10 10 -14 18 -11 8 3 14 -1 14 -9 0 -21 27 -7 33 17 4 14 -2 27
-16 39 l-22 18 28 1 c24 0 27 4 28 33 l1 32 8 -29 c6 -18 5 -36 -1 -48 -8 -14
-6 -18 8 -18 10 0 14 -4 8 -8 -18 -13 -38 -60 -31 -77 3 -10 -1 -18 -11 -22
-14 -5 -13 -8 6 -15 14 -5 21 -14 18 -22 -3 -8 1 -20 9 -26 11 -10 14 -9 14 9
0 11 5 21 10 21 6 0 10 14 10 31 0 17 10 44 21 61 20 28 20 29 3 26 -14 -2
-18 2 -17 20 2 12 -2 22 -7 22 -6 0 -10 7 -10 16 0 8 4 13 8 10 4 -2 14 -1 22
4 12 7 11 15 -7 48 -20 35 -21 40 -7 60 8 12 22 22 31 22 12 0 13 3 4 14 -7 8
-8 17 -3 20 16 10 22 -36 6 -51 -22 -23 -16 -40 17 -47 30 -6 32 -26 3 -26 -8
0 -14 -5 -14 -11 0 -5 4 -7 10 -4 15 9 12 -13 -6 -39 -9 -15 -11 -26 -5 -30 6
-4 8 -14 5 -24 -5 -15 -4 -15 9 1 19 23 32 5 17 -22 -5 -11 -10 -30 -10 -43 1
-20 2 -21 11 -5 5 9 7 22 4 27 -3 6 1 7 9 4 19 -7 21 -35 5 -51 -20 -20 -39
-3 -39 33 0 19 -4 34 -8 34 -11 0 -28 -36 -36 -72 -3 -14 -9 -33 -12 -42 -4
-11 -1 -16 10 -16 9 0 16 7 16 15 0 8 5 15 10 15 6 0 10 -4 10 -9 0 -5 9 -13
21 -16 27 -9 43 14 59 85 15 69 18 74 36 59 15 -12 9 -33 -7 -24 -5 4 -9 -5
-9 -19 0 -14 -4 -28 -10 -31 -5 -3 -10 -22 -10 -41 0 -30 3 -34 28 -34 20 0
23 3 12 10 -21 13 -5 23 18 11 31 -17 65 -14 58 4 -3 8 -1 15 4 15 6 0 10 -7
10 -15 0 -8 12 -17 28 -21 15 -3 35 -8 46 -11 12 -3 17 -1 14 8 -3 8 -10 14
-16 14 -26 0 -36 24 -22 52 8 16 14 37 15 48 0 15 6 19 24 17 23 -2 24 -2 7
17 -15 16 -15 19 -1 24 8 4 15 2 15 -4 0 -6 5 -7 11 -3 8 5 8 9 -1 14 -7 5 -9
14 -5 21 6 11 5 12 -6 1 -17 -16 -29 -15 -29 2 0 8 -7 22 -16 31 -9 8 -13 22
-10 30 8 21 -4 46 -18 39 -6 -3 -3 1 6 8 10 9 13 19 9 27 -6 9 -11 10 -15 2
-4 -6 -4 -11 1 -11 4 0 4 -4 -2 -8 -15 -11 -34 -71 -25 -77 5 -3 7 -12 4 -20
-4 -8 3 -15 18 -17 14 -2 24 -11 26 -24 2 -17 -2 -21 -22 -21 -27 0 -35 12
-13 20 8 3 6 9 -8 20 -11 8 -23 13 -27 11 -11 -7 -10 -72 1 -79 6 -3 9 -23 9
-45 0 -22 -4 -37 -9 -34 -5 3 -9 14 -9 24 0 10 -5 22 -10 25 -8 5 -8 11 -1 19
8 9 6 19 -8 35 -16 18 -18 28 -11 47 8 21 6 26 -15 34 -13 5 -29 19 -36 31
-10 20 -9 21 12 16 21 -5 20 -3 -9 22 -22 19 -31 33 -26 44 9 24 21 21 28 -8
7 -27 23 -34 23 -10 0 8 -4 15 -8 15 -5 0 -6 6 -3 14 3 8 -3 16 -15 19 -12 3
-21 15 -23 33 -2 20 -8 29 -20 28 -10 -1 -15 2 -12 7 7 13 48 11 61 -2 8 -8
13 -8 17 0 4 6 0 11 -9 11 -8 0 -18 7 -22 16 -5 13 -7 13 -14 2 -6 -9 -9 -7
-9 10 0 12 4 22 10 22 5 0 7 8 3 18 -5 13 0 11 20 -7 15 -14 26 -29 25 -35 0
-6 4 -22 11 -36 11 -24 11 -24 8 8 -2 22 1 32 10 32 8 0 2 11 -14 25 -24 21
-26 26 -13 35 13 9 7 14 -12 11 -5 0 -8 5 -8 13 0 7 -8 20 -17 27 -11 10 -14
10 -9 1 4 -6 2 -12 -3 -12 -6 0 -11 6 -11 13 0 9 -2 9 -9 -1 -6 -11 -11 -10
-25 3 -9 9 -16 12 -16 6 0 -5 5 -13 10 -16 6 -4 8 -11 5 -16 -4 -5 4 -8 16 -6
12 1 24 -3 26 -9 2 -6 -4 -10 -14 -10 -10 1 -19 -3 -20 -8 -1 -5 -7 -13 -15
-18 -10 -7 -10 -11 0 -15 17 -7 15 -24 -3 -17 -16 7 -45 -17 -45 -37 0 -7 -3
-10 -6 -6 -13 13 -32 -18 -22 -36 7 -15 5 -20 -9 -23 -11 -3 -27 -21 -38 -40
-10 -19 -22 -34 -28 -34 -5 0 -3 -8 4 -17 12 -15 12 -16 -4 -10 -25 9 -97 -40
-97 -66 0 -20 0 -21 -15 -1 -13 17 -14 17 -15 2 0 -21 -4 -22 -30 -8 -12 7
-17 16 -13 27 6 15 7 15 12 0 5 -14 10 -10 22 15 48 98 51 116 22 135 -21 14
-23 14 -23 -1 0 -11 5 -15 13 -11 6 4 4 0 -6 -8 -13 -11 -16 -23 -12 -43 4
-24 4 -25 -4 -9 -5 11 -10 14 -10 7 -1 -7 -6 -10 -13 -6 -8 5 -9 2 -5 -11 12
-30 -9 -43 -67 -40 -41 3 -60 9 -82 30 l-29 27 35 -7 c32 -6 38 -3 50 19 10
19 16 23 22 14 6 -10 10 -10 17 1 5 7 24 14 42 16 30 2 35 7 45 41 6 22 17 40
25 42 8 1 20 11 26 21 10 15 0 13 -50 -12 -41 -20 -81 -31 -117 -33 l-55 -3
50 10 c63 12 168 62 141 67 -10 2 -29 -2 -42 -8 -12 -7 -34 -10 -48 -6 -16 4
-30 1 -41 -10 -10 -11 -19 -13 -28 -6 -17 14 -66 23 -126 24 -84 0 -67 15 33
28 83 11 97 10 129 -5 29 -14 45 -15 82 -7 26 5 48 6 51 1 8 -13 24 -11 24 4
0 7 9 13 20 13 11 0 20 -4 20 -8 0 -4 -5 -8 -12 -8 -6 0 -9 -2 -6 -5 10 -10
39 8 34 21 -3 8 -1 14 3 14 5 0 11 -7 15 -15 9 -25 23 -17 21 13 -3 40 -4 44
-14 37 -5 -3 -13 0 -17 6 -4 8 -3 9 4 5 7 -4 12 -1 12 10 0 9 10 33 22 53 42
71 104 104 115 61 3 -11 10 -20 15 -20 6 0 8 -6 5 -13 -2 -6 2 -18 10 -26 12
-11 14 -10 11 4 -2 10 3 20 11 23 9 3 11 0 6 -8 -5 -8 -4 -11 3 -7 5 4 8 16 5
27 -5 19 10 29 20 13 5 -10 -1 12 -10 34 -4 11 -3 14 5 9 8 -5 12 0 12 13 0
12 5 21 11 21 6 0 8 8 4 19 -3 11 -1 22 5 26 6 3 8 10 5 15 -3 4 4 19 15 31
15 18 22 21 28 11 14 -21 58 2 70 36 9 26 14 29 39 24 25 -5 27 -4 14 12 -7 9
-21 15 -30 14 -11 -2 -15 3 -13 20 2 12 -2 22 -7 22 -6 0 -11 -3 -11 -8 0 -4
-9 -13 -21 -20 -18 -12 -19 -11 -10 7 18 33 12 46 -9 21 -20 -23 -20 -23 -20
-2 0 29 21 80 27 65 7 -18 33 -16 33 2 0 8 -11 17 -25 21 -24 6 -37 44 -15 44
6 0 10 7 10 15 0 8 7 15 15 15 8 0 15 -7 15 -15 0 -9 10 -19 22 -24 14 -5 18
-10 10 -15 -7 -4 -9 -12 -5 -19 3 -6 6 -32 4 -57 -2 -41 1 -49 24 -64 32 -21
45 -13 21 12 -9 11 -14 26 -10 35 3 8 1 24 -5 36 -9 16 -8 21 8 26 24 7 18 29
-16 64 -13 13 -23 33 -23 45 0 12 -6 28 -12 35 -11 10 -9 16 10 28 22 16 31
53 11 53 -5 0 -8 -4 -4 -9 3 -5 2 -12 -3 -15 -4 -2 -9 9 -10 25 -1 18 3 29 10
29 9 0 9 3 -2 10 -12 8 -12 11 3 28 21 23 22 36 3 29 -8 -3 -17 1 -20 10 -4
10 -2 13 8 10 10 -4 13 2 12 19 0 13 -6 26 -12 28 -7 3 -10 19 -8 38 3 24 -2
41 -17 56 -14 15 -18 30 -14 45 5 17 4 19 -4 7 -9 -12 -11 -11 -11 7 0 12 -4
25 -10 28 -5 3 -10 19 -10 35 0 16 -4 31 -9 34 -5 4 -23 36 -41 73 -38 82 -93
155 -155 207 -37 31 -49 36 -56 25 -7 -11 -10 -9 -15 9 -9 32 -32 29 -26 -4 3
-19 1 -25 -7 -20 -6 4 -11 16 -11 26 0 28 -29 52 -52 44 -14 -4 -18 -2 -14 5
7 10 -6 16 -28 12 -4 -1 -14 3 -22 10 -18 15 -28 -9 -22 -51 3 -17 1 -30 -4
-30 -4 0 -8 9 -8 20 0 11 -4 20 -9 20 -10 0 -9 19 2 36 7 12 -13 24 -39 24 -8
0 -11 -6 -8 -15 4 -8 1 -15 -6 -15 -6 0 -9 4 -5 9 10 18 -13 21 -30 5z m55
-33 c0 -6 -4 -13 -10 -16 -5 -3 -10 1 -10 9 0 9 5 16 10 16 6 0 10 -4 10 -9z
m120 -36 c4 3 6 -5 2 -17 -4 -16 -7 -18 -10 -8 -3 8 -9 18 -15 21 -5 4 -6 12
-1 20 7 11 9 10 12 -4 2 -9 7 -15 12 -12z m40 -3 c0 -15 -2 -15 -10 -2 -13 20
-13 33 0 25 6 -3 10 -14 10 -23z m-210 8 c0 -5 -4 -10 -10 -10 -5 0 -10 5 -10
10 0 6 5 10 10 10 6 0 10 -4 10 -10z m-204 -27 c-10 -10 -19 5 -10 18 6 11 8
11 12 0 2 -7 1 -15 -2 -18z m424 -19 c0 -8 -5 -12 -10 -9 -6 4 -8 11 -5 16 9
14 15 11 15 -7z m-47 -41 c41 -21 27 -26 -18 -8 -20 9 -43 14 -49 12 -7 -3
-21 2 -31 10 -18 13 -16 13 25 7 25 -4 58 -13 73 -21z m-538 -32 c-9 -16 -25
-3 -18 15 4 10 9 12 15 6 6 -6 7 -15 3 -21z m340 -21 c3 -6 -1 -7 -9 -4 -18 7
-21 14 -7 14 6 0 13 -4 16 -10z m91 -34 c23 -17 19 -21 -23 -30 -32 -7 -38 2
-20 32 10 16 19 15 43 -2z m-486 -6 c0 -5 -2 -10 -4 -10 -3 0 -8 5 -11 10 -3
6 -1 10 4 10 6 0 11 -4 11 -10z m407 -32 c-3 -8 -6 -5 -6 6 -1 11 2 17 5 13 3
-3 4 -12 1 -19z m83 -18 c0 -5 -4 -10 -10 -10 -5 0 -10 5 -10 10 0 6 5 10 10
10 6 0 10 -4 10 -10z m-370 -180 c0 -5 -4 -10 -10 -10 -5 0 -10 5 -10 10 0 6
5 10 10 10 6 0 10 -4 10 -10z m-52 -18 c6 -18 -15 -14 -22 4 -4 10 -1 14 6 12
6 -2 14 -10 16 -16z m524 -57 c6 -9 26 -24 47 -34 20 -9 37 -22 38 -28 1 -6
-23 -18 -53 -28 -61 -19 -68 -33 -7 -16 37 11 100 14 76 4 -21 -8 -15 -26 7
-20 11 3 20 1 20 -3 0 -5 -21 -12 -47 -15 -27 -3 -59 -9 -73 -12 -14 -4 -29
-7 -35 -7 -5 -1 -14 -6 -20 -13 -5 -7 -17 -13 -25 -15 -8 -2 -26 -13 -40 -26
-20 -18 -26 -19 -28 -7 -2 8 -8 15 -14 15 -6 0 -8 -3 -5 -6 8 -8 -10 -44 -22
-44 -4 0 -13 17 -19 39 -14 45 -20 51 -97 92 -48 26 -71 31 -130 32 -53 2 -78
-2 -98 -15 -14 -10 -31 -18 -37 -18 -13 0 -29 -15 -53 -50 -15 -22 -17 -23
-17 -4 0 27 47 94 66 94 4 0 15 7 25 16 21 19 150 33 204 22 21 -5 52 -21 68
-36 16 -15 36 -34 45 -42 10 -8 27 -28 38 -45 l22 -29 29 32 c22 25 28 40 25
62 -2 17 0 30 6 30 5 0 10 12 11 28 3 71 2 70 45 67 24 -1 42 -9 48 -20z
m-532 -5 c0 -5 -4 -10 -10 -10 -5 0 -10 5 -10 10 0 6 5 10 10 10 6 0 10 -4 10
-10z m-130 -15 c0 -8 -4 -15 -10 -15 -5 0 -10 7 -10 15 0 8 5 15 10 15 6 0 10
-7 10 -15z m1070 -160 c0 -5 -5 -3 -10 5 -5 8 -10 20 -10 25 0 6 5 3 10 -5 5
-8 10 -19 10 -25z m-1058 -67 c-5 -18 -10 -58 -11 -88 -4 -89 -17 -78 -16 13
1 79 23 163 32 125 2 -9 0 -32 -5 -50z m1078 -14 c0 -11 -28 -33 -34 -27 -3 4
-6 17 -6 30 0 21 3 22 20 13 11 -6 20 -13 20 -16z m-111 -39 c-1 -16 -2 -16
-9 5 -7 23 -8 23 -10 -10 -1 -20 -4 -27 -7 -17 -3 10 -2 30 2 45 5 20 8 23 16
11 5 -7 8 -23 8 -34z m-636 -8 c48 -13 87 -41 74 -53 -4 -4 -76 -13 -159 -20
-159 -13 -218 -29 -195 -53 9 -10 8 -12 -8 -9 -13 2 -21 12 -23 29 -2 19 6 32
36 56 70 57 176 76 275 50z m520 1 c12 -7 38 -25 58 -40 20 -15 39 -24 43 -20
4 4 14 -1 21 -11 13 -18 14 -18 23 0 6 10 13 15 17 11 4 -3 -1 -18 -10 -32
-11 -16 -13 -26 -6 -26 6 0 11 -9 11 -19 0 -11 5 -23 10 -26 6 -3 10 -11 10
-17 0 -6 -3 -8 -7 -5 -3 4 -12 -1 -19 -11 -11 -16 -13 -15 -23 11 -6 16 -17
27 -23 25 -13 -5 -37 -66 -58 -145 -6 -24 -15 -43 -20 -43 -6 0 -10 -5 -10
-10 0 -13 -46 -61 -57 -59 -20 3 -34 -2 -29 -10 4 -5 -2 -7 -13 -4 -10 3 -22
0 -25 -6 -7 -11 -33 -1 -67 27 -15 11 -19 10 -32 -8 -9 -12 -19 -20 -24 -17
-5 3 -9 -11 -8 -32 1 -27 12 -52 39 -90 21 -28 36 -55 32 -58 -8 -8 -39 25
-49 50 -4 10 -12 17 -19 15 -7 -3 -28 6 -47 19 -21 15 -42 21 -54 17 -12 -4
-17 -2 -13 4 3 5 25 15 50 21 l43 11 -3 60 c-1 33 -6 65 -10 72 -9 14 -11 30
-17 111 l-5 58 22 -18 c11 -11 33 -25 49 -33 15 -7 30 -24 33 -37 4 -13 10
-23 14 -23 5 0 11 -8 13 -17 3 -10 5 2 6 26 1 37 4 43 20 38 10 -2 25 -1 32 4
10 6 6 9 -13 9 -16 0 -28 5 -28 10 0 6 13 10 28 10 16 0 38 9 50 20 12 11 30
20 41 20 10 0 21 7 25 15 4 11 -2 15 -23 15 -18 0 -28 5 -28 15 0 8 5 11 10 8
6 -3 30 -7 54 -8 32 -1 42 2 39 12 -3 7 1 13 9 13 8 0 15 -5 15 -10 0 -5 5 -9
12 -7 7 1 12 -4 13 -10 0 -12 15 -19 15 -8 0 3 0 14 0 25 0 12 -5 17 -14 14
-15 -6 -89 40 -79 49 3 4 -8 14 -26 24 -17 10 -31 21 -31 26 0 10 7 9 33 -5z
m237 -8 c0 -5 -2 -10 -4 -10 -3 0 -8 5 -11 10 -3 6 -1 10 4 10 6 0 11 -4 11
-10z m-100 -30 c0 -11 -4 -20 -10 -20 -5 0 -10 9 -10 20 0 11 5 20 10 20 6 0
10 -9 10 -20z m-478 -107 c-2 -38 -7 -90 -12 -117 -5 -34 -4 -56 6 -74 9 -18
10 -30 3 -39 -6 -6 -8 -17 -5 -22 11 -18 -13 -22 -75 -12 -57 10 -64 9 -76 -9
-14 -20 -39 -18 -27 1 7 13 -4 59 -14 59 -4 0 -13 -20 -20 -45 -7 -25 -16 -45
-22 -45 -12 0 -12 2 1 36 5 16 7 40 3 54 -6 23 -7 24 -14 5 -5 -11 -9 -14 -9
-7 -1 19 -21 14 -22 -5 0 -15 -2 -15 -8 2 -7 17 -8 17 -13 -7 -3 -15 -1 -25 3
-22 19 11 8 -14 -16 -36 -14 -13 -25 -29 -25 -35 0 -7 -9 -20 -20 -30 -18 -16
-20 -16 -20 -2 0 10 4 17 8 17 9 0 36 58 47 100 5 22 4 23 -7 9 -13 -15 -15
-15 -37 2 -13 11 -29 19 -37 19 -8 0 -14 5 -14 11 0 5 -4 7 -10 4 -6 -4 -10
11 -10 38 0 25 -7 61 -15 80 -18 44 -19 55 -3 39 7 -7 26 -12 44 -12 18 0 34
-6 37 -12 2 -9 26 -13 73 -12 60 0 75 4 121 33 39 25 58 32 78 27 24 -6 26
-10 20 -39 -5 -24 -4 -28 4 -17 6 8 11 27 11 42 0 20 4 26 15 22 9 -4 15 0 15
10 0 9 4 16 9 16 5 0 11 9 14 20 11 44 23 16 19 -47z m-579 37 c-5 -20 -33
-29 -33 -10 0 7 25 27 37 30 0 0 -1 -9 -4 -20z m350 3 c-7 -2 -19 -2 -25 0 -7
3 -2 5 12 5 14 0 19 -2 13 -5z m-60 -10 c-7 -2 -21 -2 -30 0 -10 3 -4 5 12 5
17 0 24 -2 18 -5z m-60 -10 c-7 -2 -21 -2 -30 0 -10 3 -4 5 12 5 17 0 24 -2
18 -5z m993 -30 c-10 -10 -19 5 -10 18 6 11 8 11 12 0 2 -7 1 -15 -2 -18z
m-1296 -20 c0 -34 13 -56 34 -59 14 -2 15 4 10 33 -8 43 7 38 26 -7 12 -29 11
-33 -15 -60 -38 -40 -61 -44 -73 -11 -21 55 -22 64 -11 77 8 10 8 14 0 14 -6
0 -11 5 -11 11 0 5 5 7 10 4 6 -3 10 1 10 9 0 9 5 16 10 16 6 0 10 -12 10 -27z
m800 -33 c0 -5 -4 -10 -10 -10 -5 0 -10 5 -10 10 0 6 5 10 10 10 6 0 10 -4 10
-10z m30 0 c0 -5 -2 -10 -4 -10 -3 0 -8 5 -11 10 -3 6 -1 10 4 10 6 0 11 -4
11 -10z m320 -47 c0 -7 -4 -13 -10 -13 -5 0 -10 12 -10 28 0 21 2 24 10 12 5
-8 10 -21 10 -27z m80 -65 c0 -13 -5 -30 -10 -38 -8 -12 -10 -11 -10 7 0 12
-5 23 -12 25 -15 5 -1 28 18 28 8 0 14 -10 14 -22z m-80 2 c0 -5 -4 -10 -10
-10 -5 0 -10 5 -10 10 0 6 5 10 10 10 6 0 10 -4 10 -10z m-766 -105 c-4 -8 -8
-15 -10 -15 -2 0 -4 7 -4 15 0 8 4 15 10 15 5 0 7 -7 4 -15z m7 -58 c-10 -9
-11 -8 -5 6 3 10 9 15 12 12 3 -3 0 -11 -7 -18z m217 -64 c70 -35 92 -54 38
-34 -14 6 -25 7 -25 3 4 -21 -3 -23 -23 -6 -16 15 -20 15 -16 3 5 -11 -2 -15
-27 -16 -77 -2 -166 -77 -187 -158 -7 -25 -15 -45 -19 -45 -9 0 0 68 12 92 5
9 9 24 9 32 0 18 61 116 84 135 9 7 16 20 16 27 0 8 6 14 13 14 9 0 8 3 -2 9
-7 5 -10 14 -7 20 5 7 16 2 34 -14 15 -14 60 -42 100 -62z m-256 55 c-7 -7
-12 -8 -12 -2 0 14 12 26 19 19 2 -3 -1 -11 -7 -17z m686 9 c6 -5 11 -18 11
-30 -1 -16 -3 -17 -6 -5 -6 22 -28 29 -58 18 -19 -7 -25 -6 -25 4 0 24 47 31
78 13z m-763 -77 c-3 -5 -18 -9 -33 -9 l-27 1 30 8 c17 4 31 8 33 9 2 0 0 -3
-3 -9z m427 -66 c7 -5 16 -9 20 -9 3 0 9 -2 11 -5 3 -3 -26 -6 -64 -7 -38 -1
-69 2 -69 7 0 17 -37 20 -73 5 -52 -21 -69 -18 -27 6 29 16 48 19 112 15 42
-2 83 -8 90 -12z m-492 -10 c0 -8 -4 -12 -10 -9 -5 3 -10 10 -10 16 0 5 5 9
10 9 6 0 10 -7 10 -16z m565 -24 c3 -5 1 -10 -4 -10 -6 0 -11 5 -11 10 0 6 2
10 4 10 3 0 8 -4 11 -10z m-329 -15 c-8 -8 -18 -15 -22 -15 -3 0 -1 7 6 15 7
8 17 15 22 15 5 0 3 -7 -6 -15z m260 -66 c-22 -5 -43 -6 -48 -1 -5 5 13 9 39
9 l48 1 -39 -9z m-621 -9 c8 -13 -5 -13 -25 0 -13 8 -13 10 2 10 9 0 20 -4 23
-10z m83 -71 c-10 -7 -10 -9 0 -9 6 0 12 -4 12 -10 0 -5 -10 -9 -21 -7 -12 1
-24 -4 -27 -12 -3 -10 2 -12 20 -8 19 5 25 3 25 -11 0 -9 -4 -23 -9 -29 -7 -9
-5 -15 6 -19 21 -8 22 -7 29 34 4 21 3 32 -5 32 -9 0 -9 3 0 12 18 18 34 -9
21 -33 -5 -10 -9 -27 -9 -38 0 -12 -5 -21 -11 -21 -5 0 -7 -4 -4 -10 3 -5 16
-10 28 -10 17 0 19 2 8 9 -18 12 -6 43 16 39 9 -2 19 -10 21 -18 5 -13 3 -13
-13 0 -17 14 -18 13 -12 -3 4 -10 7 -23 7 -29 0 -6 7 -8 15 -4 9 3 15 0 15
-10 0 -11 -6 -14 -16 -10 -9 3 -26 9 -39 12 -23 6 -23 4 -12 -19 7 -16 18 -24
30 -21 14 2 17 -1 12 -16 -5 -15 -1 -20 12 -21 14 -1 14 -2 3 -5 -22 -6 -44
-64 -24 -64 8 0 14 7 14 15 0 8 5 15 10 15 6 0 15 10 21 23 8 19 9 17 5 -10
-5 -32 7 -46 17 -20 4 9 8 9 15 -2 14 -20 -8 -52 -30 -45 -25 8 -22 -11 3 -28
l22 -14 -27 -29 c-27 -30 -27 -30 -10 -2 15 25 15 27 0 27 -9 0 -16 -4 -16
-10 0 -5 -5 -10 -11 -10 -5 0 -8 4 -4 10 3 5 -3 18 -15 30 l-20 20 -1 -22 c-1
-13 -1 -26 0 -30 1 -8 -46 10 -66 25 -18 13 -17 67 1 67 18 0 28 28 19 54 -6
18 -8 16 -13 -14 l-7 -35 -8 43 c-4 23 -12 42 -17 42 -10 0 -7 -27 7 -65 6
-15 3 -14 -11 5 -14 19 -19 44 -19 108 -1 46 3 86 7 88 5 3 6 10 2 15 -3 5
-10 7 -15 4 -5 -4 -9 1 -9 9 0 9 5 16 11 16 14 0 57 48 66 75 6 16 8 14 11
-14 2 -20 -2 -37 -10 -42z m-94 36 c-4 -8 -11 -12 -16 -9 -6 4 -5 10 3 15 19
12 19 11 13 -6z m486 -44 c0 -5 -9 -7 -20 -4 -11 3 -20 7 -20 9 0 2 9 4 20 4
11 0 20 -4 20 -9z m473 -26 c-3 -9 -8 -14 -10 -11 -3 3 -2 9 2 15 9 16 15 13
8 -4z m-26 -17 c-3 -8 -6 -5 -6 6 -1 11 2 17 5 13 3 -3 4 -12 1 -19z m45 -60
c-9 -9 -12 -7 -12 12 0 19 3 21 12 12 9 -9 9 -15 0 -24z m175 -80 c-3 -8 -6
-5 -6 6 -1 11 2 17 5 13 3 -3 4 -12 1 -19z m-127 -28 c0 -5 -2 -10 -4 -10 -3
0 -8 5 -11 10 -3 6 -1 10 4 10 6 0 11 -4 11 -10z m-760 -20 c0 -13 -5 -18 -15
-14 -11 5 -12 9 -2 20 16 18 17 17 17 -6z m710 16 c0 -2 -7 -6 -15 -10 -8 -3
-15 -1 -15 4 0 6 7 10 15 10 8 0 15 -2 15 -4z m40 -31 c0 -8 -7 -15 -15 -15
-8 0 -15 7 -15 15 0 8 7 15 15 15 8 0 15 -7 15 -15z m-727 -20 c-3 -9 -8 -14
-10 -11 -3 3 -2 9 2 15 9 16 15 13 8 -4z m687 -25 c0 -11 -4 -20 -9 -20 -5 0
-7 9 -4 20 3 11 7 20 9 20 2 0 4 -9 4 -20z m184 -28 c-1 -7 -2 -29 -2 -49 -3
-49 -13 -36 -16 21 -2 32 0 46 8 43 6 -2 11 -9 10 -15z m-475 -24 c0 -16 -2
-18 -6 -8 -3 8 -11 18 -17 22 -7 5 -4 8 7 8 11 0 17 -7 16 -22z m31 2 c0 -5
-5 -10 -11 -10 -5 0 -7 5 -4 10 3 6 8 10 11 10 2 0 4 -4 4 -10z m470 0 c0 -5
-4 -10 -10 -10 -5 0 -10 5 -10 10 0 6 5 10 10 10 6 0 10 -4 10 -10z m-138 -32
c-16 -34 -26 -31 -17 4 4 14 12 25 19 25 10 0 10 -7 -2 -29z m-102 -32 c0 -3
-4 -8 -10 -11 -5 -3 -10 -1 -10 4 0 6 5 11 10 11 6 0 10 -2 10 -4z m-262 -53
c-11 -10 -20 -11 -39 -3 -23 10 -23 10 -1 6 14 -3 25 1 29 10 3 8 10 11 15 8
6 -4 4 -12 -4 -21z m-436 -15 c-7 -7 -12 -8 -12 -2 0 14 12 26 19 19 2 -3 -1
-11 -7 -17z m28 -12 c0 -3 -4 -8 -10 -11 -5 -3 -10 -1 -10 4 0 6 5 11 10 11 6
0 10 -2 10 -4z"/>
<path d="M1475 1670 c-3 -5 -1 -10 4 -10 6 0 11 5 11 10 0 6 -2 10 -4 10 -3 0
-8 -4 -11 -10z"/>
<path d="M1382 1581 c-23 -19 -28 -31 -13 -31 5 0 16 11 25 25 20 30 16 31
-12 6z"/>
<path d="M1175 1070 c3 -5 8 -10 11 -10 2 0 4 5 4 10 0 6 -5 10 -11 10 -5 0
-7 -4 -4 -10z"/>
<path d="M1106 833 c-6 -14 -5 -15 5 -6 7 7 10 15 7 18 -3 3 -9 -2 -12 -12z"/>
<path d="M779 533 c-1 -5 -1 -16 0 -25 1 -10 -3 -18 -9 -18 -6 0 -8 -5 -5 -11
4 -6 13 -8 21 -5 12 5 19 -11 15 -36 0 -4 6 -5 13 -2 9 3 17 -3 21 -15 3 -12
10 -19 15 -16 11 7 -19 66 -44 87 -19 15 -20 17 -4 23 10 4 15 11 12 16 -6 11
-34 12 -35 2z"/>
<path d="M774 449 c-3 -6 -1 -16 5 -22 8 -8 11 -5 11 11 0 24 -5 28 -16 11z"/>
<path d="M800 410 c0 -5 7 -10 16 -10 8 0 12 5 9 10 -3 6 -10 10 -16 10 -5 0
-9 -4 -9 -10z"/>
<path d="M855 358 c-14 -48 -30 -78 -42 -78 -28 0 -8 -34 25 -42 26 -7 29 7 5
21 -17 10 -17 10 1 11 12 0 16 5 12 15 -3 8 -2 15 2 15 4 0 8 8 8 18 0 9 4 27
8 40 4 13 3 22 -3 22 -5 0 -13 -10 -16 -22z"/>
<path d="M1105 2220 c-3 -5 1 -10 9 -10 9 0 16 5 16 10 0 6 -4 10 -9 10 -6 0
-13 -4 -16 -10z"/>
<path d="M950 2160 c-9 -6 -10 -10 -3 -10 6 0 15 5 18 10 8 12 4 12 -15 0z"/>
<path d="M573 1950 c-11 -16 -9 -23 13 -47 84 -90 82 -204 -5 -293 -65 -68
-149 -88 -229 -55 -100 42 -152 149 -128 262 5 22 2 31 -15 41 -26 16 -28 14
-40 -35 -30 -131 28 -251 149 -309 81 -39 158 -38 231 1 163 89 200 282 81
418 -37 43 -41 44 -57 17z"/>
<path d="M1282 1858 c3 -7 -1 -25 -9 -40 -17 -35 -9 -36 22 -2 30 32 30 31 4
45 -17 9 -20 8 -17 -3z"/>
<path d="M1242 1770 c0 -14 2 -19 5 -12 2 6 2 18 0 25 -3 6 -5 1 -5 -13z"/>
<path d="M1160 1755 c0 -2 11 -15 25 -29 26 -26 42 -22 22 5 -11 14 -47 33
-47 24z"/>
<path d="M1945 1431 c-3 -5 8 -9 24 -9 17 1 28 5 25 10 -7 11 -41 10 -49 -1z"/>
<path d="M1916 1402 c-3 -5 1 -9 9 -9 8 0 15 4 15 9 0 4 -4 8 -9 8 -6 0 -12
-4 -15 -8z"/>
<path d="M84 1389 c-3 -5 -2 -18 1 -29 6 -19 17 -20 241 -22 l234 -3 -120 -90
c-200 -149 -270 -207 -270 -221 0 -12 45 -14 260 -14 l260 0 0 30 0 30 -195 2
-195 3 195 145 c109 81 194 151 193 159 -3 11 -59 14 -301 16 -165 1 -300 -1
-303 -6z"/>
<path d="M1930 1360 c0 -5 5 -10 11 -10 5 0 7 5 4 10 -3 6 -8 10 -11 10 -2 0
-4 -4 -4 -10z"/>
<path d="M1899 1045 c-1 -5 -3 -35 -3 -65 -1 -30 -5 -66 -9 -80 l-8 -25 20 25
c11 14 21 33 21 43 0 9 5 17 12 17 9 0 9 3 0 12 -19 19 -14 26 16 20 15 -3 23
-1 19 4 -5 5 -13 10 -18 10 -5 1 -13 2 -17 3 -5 0 -14 11 -20 24 -6 12 -12 18
-13 12z"/>
<path d="M170 890 c0 -28 8 -33 176 -121 97 -50 172 -95 167 -99 -4 -4 -82
-46 -173 -93 -155 -80 -165 -87 -168 -116 l-3 -31 260 0 261 0 0 25 0 25 -180
0 c-168 0 -180 1 -180 18 0 14 36 38 138 90 75 39 138 77 140 86 2 10 -18 26
-60 47 -35 17 -100 51 -145 76 -127 69 -117 73 163 73 l234 0 0 25 0 25 -315
0 -315 0 0 -30z"/>
<path d="M1910 886 c-7 -14 -9 -33 -5 -47 l8 -24 9 25 c5 13 7 29 4 36 -3 7 0
14 7 17 7 2 8 5 1 10 -6 3 -17 -4 -24 -17z"/>
<path d="M1961 894 c0 -11 3 -14 6 -6 3 7 2 16 -1 19 -3 4 -6 -2 -5 -13z"/>
<path d="M1948 864 c-5 -7 -4 -33 1 -60 5 -26 7 -53 4 -60 -2 -6 6 -22 19 -33
28 -27 36 -12 12 24 -9 14 -20 51 -23 83 -3 31 -9 52 -13 46z"/>
<path d="M2002 830 c0 -14 2 -19 5 -12 2 6 2 18 0 25 -3 6 -5 1 -5 -13z"/>
<path d="M545 830 c-3 -5 1 -10 10 -10 9 0 13 5 10 10 -3 6 -8 10 -10 10 -2 0
-7 -4 -10 -10z"/>
<path d="M1887 788 c-9 -31 -2 -33 11 -3 6 14 8 25 3 25 -5 0 -11 -10 -14 -22z"/>
<path d="M1921 794 c0 -11 3 -14 6 -6 3 7 2 16 -1 19 -3 4 -6 -2 -5 -13z"/>
<path d="M1740 795 c0 -5 9 -23 20 -40 11 -16 20 -25 20 -20 0 6 -9 24 -20 40
-11 17 -20 26 -20 20z"/>
<path d="M1765 790 c3 -5 8 -10 11 -10 2 0 4 5 4 10 0 6 -5 10 -11 10 -5 0 -7
-4 -4 -10z"/>
<path d="M1901 749 c-1 -9 6 -19 14 -23 9 -3 15 0 15 10 0 8 -4 13 -9 10 -5
-4 -12 0 -14 6 -4 8 -6 7 -6 -3z"/>
<path d="M1881 730 c-1 -28 43 -77 54 -60 8 13 -2 30 -19 30 -7 0 -17 12 -23
28 l-11 27 -1 -25z"/>
<path d="M2011 673 c-1 -17 4 -35 9 -38 11 -7 11 9 0 45 -8 24 -8 24 -9 -7z"/>
<path d="M1960 662 c0 -15 31 -52 44 -52 7 0 -29 69 -36 70 -5 0 -8 -8 -8 -18z"/>
<path d="M1400 580 c0 -5 5 -10 10 -10 6 0 10 5 10 10 0 6 -4 10 -10 10 -5 0
-10 -4 -10 -10z"/>
<path d="M1865 529 c-11 -17 1 -21 15 -4 8 9 8 15 2 15 -6 0 -14 -5 -17 -11z"/>
<path d="M1300 475 c0 -8 7 -15 15 -15 8 0 15 7 15 15 0 8 -7 15 -15 15 -8 0
-15 -7 -15 -15z"/>
<path d="M1920 419 c0 -15 41 -51 49 -44 3 4 -1 10 -9 15 -8 6 -11 10 -7 10 9
0 -18 30 -27 30 -3 0 -6 -5 -6 -11z"/>
<path d="M1780 410 c0 -5 7 -10 15 -10 8 0 15 5 15 10 0 6 -7 10 -15 10 -8 0
-15 -4 -15 -10z"/>
<path d="M640 385 c0 -8 7 -15 15 -15 8 0 15 7 15 15 0 8 -7 15 -15 15 -8 0
-15 -7 -15 -15z"/>
<path d="M172 313 l3 -28 258 -3 257 -3 0 31 0 30 -261 0 -260 0 3 -27z"/>
<path d="M605 240 c-8 -13 45 -13 65 0 11 7 6 10 -22 10 -20 0 -40 -4 -43 -10z"/>
<path d="M646 211 c-3 -5 1 -11 9 -14 9 -4 12 -1 8 9 -6 16 -10 17 -17 5z"/>
<path d="M1092 181 c2 -7 7 -12 11 -12 12 1 9 15 -3 20 -7 2 -11 -2 -8 -8z"/>
<path d="M1023 163 c-7 -3 -13 -12 -13 -21 0 -15 2 -15 17 1 18 18 16 27 -4
20z"/>
<path d="M917 143 c-4 -3 -7 -13 -7 -21 0 -12 3 -12 15 -2 8 7 15 16 15 21 0
11 -14 12 -23 2z"/>
<path d="M1532 123 c-10 -10 -9 -13 5 -13 10 0 24 4 31 9 11 6 10 9 -5 13 -10
3 -24 -1 -31 -9z"/>
<path d="M816 89 c-14 -14 -16 -19 -5 -19 22 0 39 14 31 26 -5 7 -14 5 -26 -7z"/>
<path d="M756 91 c-5 -7 -3 -18 3 -24 14 -14 20 -6 11 17 -5 15 -9 16 -14 7z"/>
<path d="M703 64 c-6 -16 16 -38 27 -27 3 3 0 8 -7 10 -7 2 -9 11 -6 19 3 8 2
14 -1 14 -4 0 -9 -7 -13 -16z"/>
</g>
</svg>
